<svg width="14" height="14" viewBox="0 0 14 14" fill="none" xmlns="http://www.w3.org/2000/svg">
<path fill-rule="evenodd" clip-rule="evenodd" d="M5.73473 0.5C2.975 0.5 0.737793 2.82224 0.737793 5.68687C0.737793 8.5515 2.975 10.8738 5.73473 10.8738C6.90949 10.8738 7.98955 10.453 8.8427 9.74869L12.29 13.3269C12.5123 13.5577 12.8727 13.5577 13.095 13.3269C13.3173 13.0962 13.3173 12.7221 13.095 12.4913L9.6478 8.91298C10.3263 8.02741 10.7317 6.90629 10.7317 5.68687C10.7317 2.82224 8.49446 0.5 5.73473 0.5ZM1.87634 5.68687C1.87634 3.47495 3.6038 1.68182 5.73473 1.68182C7.86568 1.68182 9.59315 3.47495 9.59315 5.68687C9.59315 7.89882 7.86568 9.69196 5.73473 9.69196C3.6038 9.69196 1.87634 7.89882 1.87634 5.68687Z" fill="currentColor" stroke="currentColor"/>
</svg>
