<svg width="17" height="17" viewBox="0 0 17 17" fill="none" xmlns="http://www.w3.org/2000/svg">
<path d="M16.5 1.83333V16.5H0.5V1.83333H2.5V2.5C2.5 3.23533 3.098 3.83333 3.83333 3.83333C4.56867 3.83333 5.16667 3.23533 5.16667 2.5V1.83333H11.8333V2.5C11.8333 3.23533 12.4313 3.83333 13.1667 3.83333C13.902 3.83333 14.5 3.23533 14.5 2.5V1.83333H16.5ZM15.1667 5.83333H1.83333V15.1667H15.1667V5.83333ZM13.8333 1.16667C13.8333 0.798667 13.5353 0.5 13.1667 0.5C12.798 0.5 12.5 0.798667 12.5 1.16667V2.5C12.5 2.868 12.798 3.16667 13.1667 3.16667C13.5353 3.16667 13.8333 2.868 13.8333 2.5V1.16667ZM4.5 2.5C4.5 2.868 4.202 3.16667 3.83333 3.16667C3.46467 3.16667 3.16667 2.868 3.16667 2.5V1.16667C3.16667 0.798667 3.46467 0.5 3.83333 0.5C4.202 0.5 4.5 0.798667 4.5 1.16667V2.5ZM8.958 11.488C8.958 10.9533 8.67933 10.5353 8.21867 10.358C8.57067 10.182 8.776 9.82 8.776 9.356C8.776 8.45867 7.90133 7.92333 7.05533 7.92333C6.07067 7.92333 5.328 8.54 5.28267 9.76533H6.37933C6.37 9.258 6.56 8.88867 7.06267 8.88867C7.362 8.88867 7.68467 9.07 7.68467 9.468C7.68467 9.97067 7.14067 10.0427 6.64 9.99933V10.8527C7.35133 10.8527 7.776 10.8973 7.776 11.5093C7.776 11.992 7.41067 12.208 7.04867 12.208C6.50067 12.208 6.276 11.7987 6.25667 11.24H5.16733C5.146 12.5013 5.91 13.1667 7.062 13.1667C8.09067 13.1667 8.958 12.538 8.958 11.488ZM11.8333 13.1667V8.02133H10.9053C10.79 8.79067 10.242 9.01533 9.458 8.994V9.89133H10.6927V13.1667H11.8333Z" fill="currentColor"/>
</svg>
