<svg width="146" height="42" viewBox="0 0 146 42" fill="none" xmlns="http://www.w3.org/2000/svg">
<g clip-path="url(#clip0_320_509)">
<g clip-path="url(#clip1_320_509)">
<path d="M9.28206 31.6804C7.80677 31.6804 6.46466 31.3423 5.25574 30.6661C4.04681 29.9695 3.08377 28.9962 2.36662 27.7463C1.66995 26.4759 1.32162 25.0313 1.32162 23.4126C1.32162 21.7119 1.69044 20.2366 2.42809 18.9867C3.18623 17.7368 4.16976 16.7943 5.37868 16.1591C6.5876 15.5034 7.88873 15.1755 9.28206 15.1755C10.45 15.1755 11.5155 15.3804 12.4785 15.7903C13.4416 16.1796 14.1997 16.7328 14.7529 17.45C15.3267 18.1671 15.6135 18.9765 15.6135 19.878C15.6135 20.5542 15.4394 21.0767 15.091 21.4455C14.7427 21.7939 14.2817 21.968 13.7079 21.968C13.1547 21.968 12.6937 21.7836 12.3249 21.4148C11.956 21.046 11.7716 20.585 11.7716 20.0317C12.079 19.8268 12.2941 19.6014 12.4171 19.3555C12.54 19.1097 12.6015 18.8023 12.6015 18.4335C12.6015 17.6753 12.2941 17.0606 11.6794 16.5894C11.0852 16.0976 10.2861 15.8517 9.28206 15.8517C7.80677 15.8517 6.66956 16.3845 5.87044 17.45C5.09181 18.495 4.7025 19.9703 4.7025 21.8758V24.9494C4.7025 26.773 5.08157 28.238 5.83971 29.3445C6.61833 30.451 7.76578 31.0042 9.28206 31.0042C10.6754 31.0042 11.8843 30.6149 12.9088 29.8363C13.9538 29.0372 14.5993 27.9922 14.8451 26.7013H15.5521C15.2652 28.2176 14.548 29.4265 13.4006 30.328C12.2736 31.2296 10.9008 31.6804 9.28206 31.6804ZM26.0904 31.6804C24.6151 31.6804 23.273 31.3423 22.0641 30.6661C20.8552 29.9695 19.8921 28.9962 19.175 27.7463C18.4783 26.4759 18.13 25.0313 18.13 23.4126C18.13 21.7939 18.4783 20.3596 19.175 19.1097C19.8921 17.8598 20.8552 16.8967 22.0641 16.2205C23.273 15.5239 24.6151 15.1755 26.0904 15.1755C27.5657 15.1755 28.9078 15.5239 30.1167 16.2205C31.3257 16.8967 32.2785 17.8598 32.9751 19.1097C33.6923 20.3596 34.0509 21.7939 34.0509 23.4126C34.0509 25.0313 33.6923 26.4759 32.9751 27.7463C32.2785 28.9962 31.3257 29.9695 30.1167 30.6661C28.9078 31.3423 27.5657 31.6804 26.0904 31.6804ZM26.0904 31.0042C27.6067 31.0042 28.7439 30.451 29.502 29.3445C30.2807 28.238 30.67 26.773 30.67 24.9494V21.8758C30.67 20.0522 30.2807 18.5974 29.502 17.5114C28.7439 16.405 27.6067 15.8517 26.0904 15.8517C24.5741 15.8517 23.4267 16.405 22.6481 17.5114C21.8899 18.5974 21.5109 20.0522 21.5109 21.8758V24.9494C21.5109 26.773 21.8899 28.238 22.6481 29.3445C23.4267 30.451 24.5741 31.0042 26.0904 31.0042ZM44.6397 31.6804C43.1644 31.6804 41.8223 31.3423 40.6133 30.6661C39.4044 29.9695 38.4414 28.9962 37.7242 27.7463C37.0275 26.4759 36.6792 25.0313 36.6792 23.4126C36.6792 21.7939 37.0275 20.3596 37.7242 19.1097C38.4414 17.8598 39.4044 16.8967 40.6133 16.2205C41.8223 15.5239 43.1644 15.1755 44.6397 15.1755C46.115 15.1755 47.4571 15.5239 48.666 16.2205C49.8749 16.8967 50.8277 17.8598 51.5244 19.1097C52.2415 20.3596 52.6001 21.7939 52.6001 23.4126C52.6001 25.0313 52.2415 26.4759 51.5244 27.7463C50.8277 28.9962 49.8749 29.9695 48.666 30.6661C47.4571 31.3423 46.115 31.6804 44.6397 31.6804ZM44.6397 31.0042C46.1559 31.0042 47.2931 30.451 48.0513 29.3445C48.8299 28.238 49.2192 26.773 49.2192 24.9494V21.8758C49.2192 20.0522 48.8299 18.5974 48.0513 17.5114C47.2931 16.405 46.1559 15.8517 44.6397 15.8517C43.1234 15.8517 41.9759 16.405 41.1973 17.5114C40.4392 18.5974 40.0601 20.0522 40.0601 21.8758V24.9494C40.0601 26.773 40.4392 28.238 41.1973 29.3445C41.9759 30.451 43.1234 31.0042 44.6397 31.0042ZM54.5215 31.373V30.7583L56.673 30.451V7.70687L54.5215 7.39952V6.78481H59.7465V22.552L66.7849 16.7738L64.1109 16.0669V15.4522H69.8892V16.0669L67.9221 16.7738L62.8201 20.9538L70.0121 30.4817L71.6718 30.7583V31.373H64.4798V30.7583L66.3239 30.451L60.5456 22.8286L59.7465 23.5048V30.451L61.5906 30.7583V31.373H54.5215Z" fill="white"/>
<path d="M83.7677 31.3074C82.2924 31.3074 80.9503 30.9693 79.7413 30.2931C78.5324 29.5964 77.5694 28.6231 76.8522 27.3732C76.1555 26.1028 75.8072 24.6583 75.8072 23.0396C75.8072 21.3389 76.176 19.8636 76.9137 18.6137C77.6718 17.3638 78.6554 16.4212 79.8643 15.786C81.0732 15.1303 82.3743 14.8025 83.7677 14.8025C84.9356 14.8025 86.0011 15.0074 86.9641 15.4172C87.9272 15.8065 88.6853 16.3598 89.2385 17.0769C89.8123 17.7941 90.0991 18.6034 90.0991 19.505C90.0991 20.1812 89.925 20.7037 89.5766 21.0725C89.2283 21.4208 88.7673 21.595 88.1935 21.595C87.6403 21.595 87.1793 21.4106 86.8104 21.0418C86.4416 20.6729 86.2572 20.2119 86.2572 19.6587C86.5646 19.4538 86.7797 19.2284 86.9027 18.9825C87.0256 18.7366 87.0871 18.4293 87.0871 18.0604C87.0871 17.3023 86.7797 16.6876 86.165 16.2163C85.5708 15.7246 84.7717 15.4787 83.7677 15.4787C82.2924 15.4787 81.1552 16.0114 80.356 17.0769C79.5774 18.1219 79.1881 19.5972 79.1881 21.5028V24.5763C79.1881 26.4 79.5672 27.865 80.3253 28.9715C81.1039 30.0779 82.2514 30.6312 83.7677 30.6312C85.161 30.6312 86.3699 30.2419 87.3944 29.4632C88.4394 28.6641 89.0849 27.6191 89.3307 26.3282H90.0377C89.7508 27.8445 89.0336 29.0534 87.8862 29.955C86.7592 30.8566 85.3864 31.3074 83.7677 31.3074ZM100.576 31.3074C99.1007 31.3074 97.7586 30.9693 96.5497 30.2931C95.3408 29.5964 94.3777 28.6231 93.6606 27.3732C92.9639 26.1028 92.6156 24.6583 92.6156 23.0396C92.6156 21.4208 92.9639 19.9865 93.6606 18.7366C94.3777 17.4867 95.3408 16.5237 96.5497 15.8475C97.7586 15.1508 99.1007 14.8025 100.576 14.8025C102.051 14.8025 103.393 15.1508 104.602 15.8475C105.811 16.5237 106.764 17.4867 107.461 18.7366C108.178 19.9865 108.536 21.4208 108.536 23.0396C108.536 24.6583 108.178 26.1028 107.461 27.3732C106.764 28.6231 105.811 29.5964 104.602 30.2931C103.393 30.9693 102.051 31.3074 100.576 31.3074ZM100.576 30.6312C102.092 30.6312 103.23 30.0779 103.988 28.9715C104.766 27.865 105.156 26.4 105.156 24.5763V21.5028C105.156 19.6792 104.766 18.2244 103.988 17.1384C103.23 16.0319 102.092 15.4787 100.576 15.4787C99.0597 15.4787 97.9123 16.0319 97.1337 17.1384C96.3755 18.2244 95.9965 19.6792 95.9965 21.5028V24.5763C95.9965 26.4 96.3755 27.865 97.1337 28.9715C97.9123 30.0779 99.0597 30.6312 100.576 30.6312ZM119.125 31.3074C117.65 31.3074 116.308 30.9693 115.099 30.2931C113.89 29.5964 112.927 28.6231 112.21 27.3732C111.513 26.1028 111.165 24.6583 111.165 23.0396C111.165 21.4208 111.513 19.9865 112.21 18.7366C112.927 17.4867 113.89 16.5237 115.099 15.8475C116.308 15.1508 117.65 14.8025 119.125 14.8025C120.601 14.8025 121.943 15.1508 123.152 15.8475C124.36 16.5237 125.313 17.4867 126.01 18.7366C126.727 19.9865 127.086 21.4208 127.086 23.0396C127.086 24.6583 126.727 26.1028 126.01 27.3732C125.313 28.6231 124.36 29.5964 123.152 30.2931C121.943 30.9693 120.601 31.3074 119.125 31.3074ZM119.125 30.6312C120.642 30.6312 121.779 30.0779 122.537 28.9715C123.315 27.865 123.705 26.4 123.705 24.5763V21.5028C123.705 19.6792 123.315 18.2244 122.537 17.1384C121.779 16.0319 120.642 15.4787 119.125 15.4787C117.609 15.4787 116.462 16.0319 115.683 17.1384C114.925 18.2244 114.546 19.6792 114.546 21.5028V24.5763C114.546 26.4 114.925 27.865 115.683 28.9715C116.462 30.0779 117.609 30.6312 119.125 30.6312ZM129.007 31V30.3853L131.159 30.0779V7.33382L129.007 7.02647V6.41176H134.232V22.179L141.271 16.4007L138.597 15.6938V15.0791H144.375V15.6938L142.408 16.4007L137.306 20.5807L144.498 30.1087L146.157 30.3853V31H138.965V30.3853L140.809 30.0779L135.031 22.4556L134.232 23.1318V30.0779L136.076 30.3853V31H129.007Z" fill="#DDDDDD"/>
</g>
</g>
<defs>
<clipPath id="clip0_320_509">
<rect width="146" height="42" fill="white"/>
</clipPath>
<clipPath id="clip1_320_509">
<rect width="158.451" height="42" fill="white"/>
</clipPath>
</defs>
</svg>
