<svg width="20" height="20" viewBox="0 0 20 20" fill="none" xmlns="http://www.w3.org/2000/svg">
<path d="M4.10039 7.2369C4.64816 6.10147 5.46917 5.20522 6.51233 4.50829C9.10883 2.77311 12.5984 2.9805 14.9342 4.99515C15.1012 5.13938 15.104 5.21239 14.945 5.36557C14.3811 5.90753 13.8324 6.46516 13.2819 7.02101C13.1897 7.11417 13.1305 7.14911 13.0109 7.0443C10.9797 5.26971 7.57923 6.00964 6.46485 8.85828C6.44335 8.91386 6.42185 8.96895 6.40035 9.02445C6.30003 9.06703 6.23329 9.0052 6.16118 8.95103C5.51575 8.46636 4.88735 7.95981 4.24416 7.4725C4.16667 7.41382 4.09456 7.34842 4.10039 7.2369Z" fill="#F72A25"/>
<path d="M15.0692 15.7463C14.4519 16.3514 13.7133 16.7532 12.9072 17.0438C12.2152 17.2933 11.4963 17.3991 10.7666 17.4501C10.5431 17.481 10.3196 17.4801 10.0961 17.4506C8.18133 17.3363 6.55456 16.596 5.23549 15.2017C4.77326 14.713 4.38223 14.1706 4.09961 13.5556C4.11126 13.4637 4.15023 13.393 4.22637 13.3326C4.85836 12.8336 5.49707 12.3432 6.13443 11.8509C6.21505 11.7887 6.29388 11.7452 6.39779 11.7725C6.72924 12.6678 7.25463 13.4266 8.05906 13.9511C9.56225 14.932 11.1128 14.9329 12.6832 14.1025C12.7423 14.0712 12.801 14.0384 12.8597 14.0067C12.9604 13.9954 13.0415 14.0263 13.1248 14.0899C13.7188 14.5437 14.2948 15.0202 14.8932 15.4682C14.9809 15.534 15.1095 15.5917 15.0692 15.7463Z" fill="#2CAA46"/>
<path d="M15.0692 15.7466C14.4121 15.2337 13.7546 14.7213 13.098 14.2076C13.0161 14.1435 12.939 14.0741 12.8593 14.0073C13.5262 13.5214 13.9898 12.8934 14.2021 12.0894C14.2729 11.8216 14.2746 11.8212 13.9916 11.8212C12.8808 11.8212 11.7696 11.8153 10.6587 11.8261C10.4469 11.8283 10.3985 11.7593 10.4012 11.5605C10.4115 10.8084 10.4101 10.056 10.4016 9.3039C10.3999 9.13057 10.4482 9.07323 10.627 9.07373C12.6998 9.07907 14.7727 9.07732 16.8456 9.0764C16.9647 9.0764 17.0597 9.07732 17.0821 9.23723C17.3938 11.4937 17.01 13.5671 15.4836 15.3421C15.3576 15.4886 15.2282 15.6327 15.0692 15.7466Z" fill="#2686FB"/>
<path d="M6.39786 11.7732C5.6315 12.3675 4.86559 12.9619 4.09923 13.5558C3.71314 12.8575 3.49904 12.1028 3.39557 11.3185C3.21462 9.94303 3.42737 8.62395 4.01816 7.36761C4.03966 7.32147 4.07236 7.28027 4.09967 7.23682C4.86648 7.83297 5.63284 8.4287 6.39965 9.02487C6.10359 9.94078 6.11523 10.8568 6.39786 11.7732Z" fill="#FAB800"/>
</svg>
