<svg width="18" height="18" viewBox="0 0 18 18" fill="none" xmlns="http://www.w3.org/2000/svg">
<path fill-rule="evenodd" clip-rule="evenodd" d="M7.57801 0C3.75685 0 0.65918 3.21542 0.65918 7.18183C0.65918 11.1482 3.75685 14.3637 7.57801 14.3637C9.20461 14.3637 10.7001 13.781 11.8814 12.8059L16.6545 17.7604C16.9623 18.0799 17.4613 18.0799 17.7692 17.7604C18.077 17.4408 18.077 16.9229 17.7692 16.6033L12.9961 11.6487C13.9356 10.4226 14.4969 8.87025 14.4969 7.18183C14.4969 3.21542 11.3992 0 7.57801 0ZM2.23562 7.18183C2.23562 4.11916 4.6275 1.63637 7.57801 1.63637C10.5286 1.63637 12.9204 4.11916 12.9204 7.18183C12.9204 10.2445 10.5286 12.7273 7.57801 12.7273C4.6275 12.7273 2.23562 10.2445 2.23562 7.18183Z" fill="#A1A1A1"/>
</svg>
