<svg width="16" height="14" viewBox="0 0 16 14" fill="none" xmlns="http://www.w3.org/2000/svg">
<path d="M8.01343 0.42097C9.84826 0.448237 11.546 0.910779 13.0171 2.04415C14.0653 2.8517 14.8098 3.87135 15.0653 5.19684C15.3162 6.49842 15.0232 7.68759 14.2659 8.76134C13.3178 10.1063 11.983 10.8926 10.4293 11.3458C9.57951 11.5937 8.70893 11.695 7.82559 11.6818C7.55726 11.678 7.28851 11.6473 7.02184 11.6141C6.83059 11.5903 6.66751 11.6158 6.50143 11.7291C5.64147 12.3173 4.77473 12.8948 3.90969 13.4758C3.81129 13.5418 3.71461 13.6351 3.58599 13.5354C3.46673 13.443 3.49953 13.3246 3.53147 13.2053C3.72782 12.4736 3.91735 11.7402 4.12349 11.011C4.17034 10.8449 4.12733 10.7759 3.98337 10.6975C2.89643 10.1051 1.98027 9.32142 1.41167 8.20675C0.508718 6.43625 0.704643 4.73725 1.88401 3.16091C2.80613 1.92873 4.08218 1.20339 5.53797 0.772787C6.34426 0.534695 7.17009 0.41757 8.01343 0.42097Z" fill="#3F1C1E"/>
</svg>
