<svg width="109" height="32" viewBox="0 0 109 32" fill="none" xmlns="http://www.w3.org/2000/svg">
<g clip-path="url(#clip0_349_518)">
<g clip-path="url(#clip1_349_518)">
<path d="M6.91244 23.5067C5.81378 23.5067 4.8143 23.2549 3.914 22.7514C3.0137 22.2326 2.29652 21.5078 1.76244 20.5769C1.24363 19.6309 0.984222 18.5551 0.984222 17.3496C0.984222 16.0831 1.25889 14.9844 1.80822 14.0536C2.37281 13.1228 3.10526 12.4209 4.00556 11.9478C4.90585 11.4595 5.87482 11.2154 6.91244 11.2154C7.78222 11.2154 8.5757 11.368 9.29289 11.6732C10.0101 11.9631 10.5747 12.3751 10.9867 12.9092C11.4139 13.4432 11.6276 14.046 11.6276 14.7174C11.6276 15.2209 11.4979 15.6101 11.2384 15.8847C10.979 16.1441 10.6357 16.2738 10.2084 16.2738C9.79645 16.2738 9.45311 16.1365 9.17845 15.8618C8.90378 15.5872 8.76644 15.2438 8.76644 14.8318C8.99533 14.6792 9.15556 14.5114 9.24711 14.3283C9.33867 14.1452 9.38445 13.9163 9.38445 13.6416C9.38445 13.077 9.15556 12.6192 8.69778 12.2683C8.25526 11.9021 7.66015 11.7189 6.91244 11.7189C5.81378 11.7189 4.96689 12.1157 4.37178 12.9092C3.79193 13.6874 3.502 14.7861 3.502 16.2052V18.4941C3.502 19.8521 3.7843 20.9432 4.34889 21.7672C4.92874 22.5912 5.78326 23.0032 6.91244 23.0032C7.95007 23.0032 8.85037 22.7132 9.61333 22.1334C10.3916 21.5383 10.8722 20.7601 11.0553 19.7987H11.5818C11.3681 20.9279 10.8341 21.8282 9.97956 22.4996C9.1403 23.171 8.11793 23.5067 6.91244 23.5067ZM19.4298 23.5067C18.3311 23.5067 17.3317 23.2549 16.4314 22.7514C15.5311 22.2326 14.8139 21.5078 14.2798 20.5769C13.761 19.6309 13.5016 18.5551 13.5016 17.3496C13.5016 16.1441 13.761 15.076 14.2798 14.1452C14.8139 13.2144 15.5311 12.4972 16.4314 11.9936C17.3317 11.4748 18.3311 11.2154 19.4298 11.2154C20.5285 11.2154 21.528 11.4748 22.4283 11.9936C23.3285 12.4972 24.0381 13.2144 24.5569 14.1452C25.091 15.076 25.358 16.1441 25.358 17.3496C25.358 18.5551 25.091 19.6309 24.5569 20.5769C24.0381 21.5078 23.3285 22.2326 22.4283 22.7514C21.528 23.2549 20.5285 23.5067 19.4298 23.5067ZM19.4298 23.0032C20.559 23.0032 21.4059 22.5912 21.9705 21.7672C22.5503 20.9432 22.8403 19.8521 22.8403 18.4941V16.2052C22.8403 14.8471 22.5503 13.7637 21.9705 12.9549C21.4059 12.1309 20.559 11.7189 19.4298 11.7189C18.3006 11.7189 17.4461 12.1309 16.8663 12.9549C16.3017 13.7637 16.0194 14.8471 16.0194 16.2052V18.4941C16.0194 19.8521 16.3017 20.9432 16.8663 21.7672C17.4461 22.5912 18.3006 23.0032 19.4298 23.0032ZM33.2436 23.5067C32.1449 23.5067 31.1455 23.2549 30.2452 22.7514C29.3449 22.2326 28.6277 21.5078 28.0936 20.5769C27.5748 19.6309 27.3154 18.5551 27.3154 17.3496C27.3154 16.1441 27.5748 15.076 28.0936 14.1452C28.6277 13.2144 29.3449 12.4972 30.2452 11.9936C31.1455 11.4748 32.1449 11.2154 33.2436 11.2154C34.3423 11.2154 35.3418 11.4748 36.2421 11.9936C37.1424 12.4972 37.8519 13.2144 38.3707 14.1452C38.9048 15.076 39.1718 16.1441 39.1718 17.3496C39.1718 18.5551 38.9048 19.6309 38.3707 20.5769C37.8519 21.5078 37.1424 22.2326 36.2421 22.7514C35.3418 23.2549 34.3423 23.5067 33.2436 23.5067ZM33.2436 23.0032C34.3728 23.0032 35.2197 22.5912 35.7843 21.7672C36.3641 20.9432 36.6541 19.8521 36.6541 18.4941V16.2052C36.6541 14.8471 36.3641 13.7637 35.7843 12.9549C35.2197 12.1309 34.3728 11.7189 33.2436 11.7189C32.1144 11.7189 31.2599 12.1309 30.6801 12.9549C30.1155 13.7637 29.8332 14.8471 29.8332 16.2052V18.4941C29.8332 19.8521 30.1155 20.9432 30.6801 21.7672C31.2599 22.5912 32.1144 23.0032 33.2436 23.0032ZM40.6027 23.2778V22.8201L42.205 22.5912V5.65339L40.6027 5.4245V4.96672H44.4939V16.7087L49.7354 12.4056L47.7441 11.8792V11.4214H52.0472V11.8792L50.5823 12.4056L46.7827 15.5185L52.1387 22.6141L53.3747 22.8201V23.2778H48.0187V22.8201L49.3921 22.5912L45.089 16.9147L44.4939 17.4183V22.5912L45.8672 22.8201V23.2778H40.6027Z" fill="black"/>
<path d="M62.3827 23.2289C61.284 23.2289 60.2845 22.9771 59.3842 22.4736C58.4839 21.9547 57.7667 21.2299 57.2327 20.2991C56.7138 19.353 56.4544 18.2773 56.4544 17.0718C56.4544 15.8053 56.7291 14.7066 57.2784 13.7758C57.843 12.845 58.5755 12.143 59.4758 11.67C60.3761 11.1817 61.345 10.9376 62.3827 10.9376C63.2524 10.9376 64.0459 11.0901 64.7631 11.3953C65.4803 11.6853 66.0449 12.0973 66.4569 12.6313C66.8841 13.1654 67.0978 13.7681 67.0978 14.4396C67.0978 14.9431 66.9681 15.3322 66.7087 15.6069C66.4493 15.8663 66.1059 15.996 65.6787 15.996C65.2667 15.996 64.9233 15.8587 64.6487 15.584C64.374 15.3093 64.2367 14.966 64.2367 14.554C64.4655 14.4014 64.6258 14.2336 64.7173 14.0504C64.8089 13.8673 64.8547 13.6384 64.8547 13.3638C64.8547 12.7992 64.6258 12.3414 64.168 11.9904C63.7255 11.6242 63.1304 11.4411 62.3827 11.4411C61.284 11.4411 60.4371 11.8379 59.842 12.6313C59.2621 13.4096 58.9722 14.5082 58.9722 15.9273V18.2162C58.9722 19.5743 59.2545 20.6653 59.8191 21.4893C60.399 22.3133 61.2535 22.7253 62.3827 22.7253C63.4203 22.7253 64.3206 22.4354 65.0835 21.8556C65.8618 21.2604 66.3424 20.4822 66.5255 19.5209H67.052C66.8384 20.6501 66.3043 21.5504 65.4498 22.2218C64.6105 22.8932 63.5881 23.2289 62.3827 23.2289ZM74.9 23.2289C73.8014 23.2289 72.8019 22.9771 71.9016 22.4736C71.0013 21.9547 70.2841 21.2299 69.75 20.2991C69.2312 19.353 68.9718 18.2773 68.9718 17.0718C68.9718 15.8663 69.2312 14.7981 69.75 13.8673C70.2841 12.9365 71.0013 12.2193 71.9016 11.7158C72.8019 11.197 73.8014 10.9376 74.9 10.9376C75.9987 10.9376 76.9982 11.197 77.8985 11.7158C78.7988 12.2193 79.5083 12.9365 80.0271 13.8673C80.5612 14.7981 80.8282 15.8663 80.8282 17.0718C80.8282 18.2773 80.5612 19.353 80.0271 20.2991C79.5083 21.2299 78.7988 21.9547 77.8985 22.4736C76.9982 22.9771 75.9987 23.2289 74.9 23.2289ZM74.9 22.7253C76.0292 22.7253 76.8761 22.3133 77.4407 21.4893C78.0205 20.6653 78.3105 19.5743 78.3105 18.2162V15.9273C78.3105 14.5693 78.0205 13.4859 77.4407 12.6771C76.8761 11.8531 76.0292 11.4411 74.9 11.4411C73.7708 11.4411 72.9163 11.8531 72.3365 12.6771C71.7719 13.4859 71.4896 14.5693 71.4896 15.9273V18.2162C71.4896 19.5743 71.7719 20.6653 72.3365 21.4893C72.9163 22.3133 73.7708 22.7253 74.9 22.7253ZM88.7138 23.2289C87.6152 23.2289 86.6157 22.9771 85.7154 22.4736C84.8151 21.9547 84.0979 21.2299 83.5638 20.2991C83.045 19.353 82.7856 18.2773 82.7856 17.0718C82.7856 15.8663 83.045 14.7981 83.5638 13.8673C84.0979 12.9365 84.8151 12.2193 85.7154 11.7158C86.6157 11.197 87.6152 10.9376 88.7138 10.9376C89.8125 10.9376 90.812 11.197 91.7123 11.7158C92.6126 12.2193 93.3221 12.9365 93.8409 13.8673C94.375 14.7981 94.642 15.8663 94.642 17.0718C94.642 18.2773 94.375 19.353 93.8409 20.2991C93.3221 21.2299 92.6126 21.9547 91.7123 22.4736C90.812 22.9771 89.8125 23.2289 88.7138 23.2289ZM88.7138 22.7253C89.843 22.7253 90.6899 22.3133 91.2545 21.4893C91.8343 20.6653 92.1243 19.5743 92.1243 18.2162V15.9273C92.1243 14.5693 91.8343 13.4859 91.2545 12.6771C90.6899 11.8531 89.843 11.4411 88.7138 11.4411C87.5846 11.4411 86.7301 11.8531 86.1503 12.6771C85.5857 13.4859 85.3034 14.5693 85.3034 15.9273V18.2162C85.3034 19.5743 85.5857 20.6653 86.1503 21.4893C86.7301 22.3133 87.5846 22.7253 88.7138 22.7253ZM96.073 23V22.5422L97.6752 22.3133V5.37555L96.073 5.14667V4.68889H99.9641V16.4309L105.206 12.1278L103.214 11.6013V11.1436H107.517V11.6013L106.053 12.1278L102.253 15.2407L107.609 22.3362L108.845 22.5422V23H103.489V22.5422L104.862 22.3133L100.559 16.6369L99.9641 17.1404V22.3133L101.337 22.5422V23H96.073Z" fill="#3E3E3E"/>
</g>
</g>
<defs>
<clipPath id="clip0_349_518">
<rect width="109" height="32" fill="white"/>
</clipPath>
<clipPath id="clip1_349_518">
<rect width="118" height="31.2778" fill="white"/>
</clipPath>
</defs>
</svg>
