<svg width="20" height="20" viewBox="0 0 13 15" fill="none" xmlns="http://www.w3.org/2000/svg">
<path d="M0.3 0.652832C0.134315 0.652832 0 0.787147 0 0.952832V14.0472C0 14.2128 0.134315 14.3472 0.3 14.3472H12.7C12.8657 14.3472 13 14.2128 13 14.0472V0.952831C13 0.787146 12.8657 0.652832 12.7 0.652832H0.3ZM11.7 12.629C11.7 12.7947 11.5657 12.929 11.4 12.929H1.6C1.43432 12.929 1.3 12.7947 1.3 12.629V2.59261C1.3 2.42692 1.43431 2.29261 1.6 2.29261H11.4C11.5657 2.29261 11.7 2.42692 11.7 2.59261V12.629ZM9.75 9.79261C9.75 9.95829 9.61569 10.0926 9.45 10.0926H3.55C3.38432 10.0926 3.25 9.95829 3.25 9.79261V9.68352C3.25 9.51783 3.38431 9.38352 3.55 9.38352H9.45C9.61569 9.38352 9.75 9.51783 9.75 9.68352V9.79261ZM9.75 7.66533C9.75 7.83102 9.61569 7.96533 9.45 7.96533H3.55C3.38432 7.96533 3.25 7.83102 3.25 7.66533V7.55624C3.25 7.39056 3.38431 7.25624 3.55 7.25624H9.45C9.61569 7.25624 9.75 7.39056 9.75 7.55624V7.66533ZM9.75 5.53806C9.75 5.70375 9.61569 5.83806 9.45 5.83806H3.55C3.38432 5.83806 3.25 5.70375 3.25 5.53806V5.42897C3.25 5.26328 3.38431 5.12897 3.55 5.12897H9.45C9.61569 5.12897 9.75 5.26328 9.75 5.42897V5.53806Z" fill="black"/>
</svg>
