<svg width="16" height="17" viewBox="0 0 16 17" fill="none" xmlns="http://www.w3.org/2000/svg">
<g clip-path="url(#clip0_130_1613)">
<path d="M12.6667 1.83333C13.7693 1.83333 14.6667 2.73067 14.6667 3.83333V13.1667C14.6667 14.2693 13.7693 15.1667 12.6667 15.1667H3.33333C2.23067 15.1667 1.33333 14.2693 1.33333 13.1667V3.83333C1.33333 2.73067 2.23067 1.83333 3.33333 1.83333H12.6667ZM12.6667 0.5H3.33333C1.49267 0.5 0 1.99267 0 3.83333V13.1667C0 15.0073 1.49267 16.5 3.33333 16.5H12.6667C14.508 16.5 16 15.0073 16 13.1667V3.83333C16 1.99267 14.508 0.5 12.6667 0.5ZM8 4.5C5.79133 4.5 4 6.29133 4 8.5C4 10.7087 5.79133 12.5 8 12.5C10.2087 12.5 12 10.7087 12 8.5C12 6.29133 10.2087 4.5 8 4.5ZM8 11.1667C6.52933 11.1667 5.33333 9.97067 5.33333 8.5C5.33333 7.02933 6.52933 5.83333 8 5.83333C9.47 5.83333 10.6667 7.02933 10.6667 8.5C10.6667 9.97067 9.47 11.1667 8 11.1667ZM12.6667 4.5C12.298 4.5 12 4.20133 12 3.83333C12 3.46533 12.298 3.16667 12.6667 3.16667C13.0353 3.16667 13.3333 3.46533 13.3333 3.83333C13.3333 4.20133 13.0353 4.5 12.6667 4.5Z" fill="black"/>
</g>
<defs>
<clipPath id="clip0_130_1613">
<rect width="16" height="16" fill="white" transform="translate(0 0.5)"/>
</clipPath>
</defs>
</svg>
